<mxfile host="app.diagrams.net" modified="2024-02-27T12:26:01.979Z" agent="Mozilla/5.0 (Macintosh; Intel Mac OS X 10_15_7) AppleWebKit/537.36 (KHTML, like Gecko) Chrome/122.0.0.0 Safari/537.36" etag="H3z_ZERCrni9JTbY3_rj" version="23.1.6" type="github">
  <diagram id="C5RBs43oDa-KdzZeNtuy" name="Page-1">
    <mxGraphModel dx="1679" dy="1057" grid="1" gridSize="10" guides="1" tooltips="1" connect="1" arrows="1" fold="1" page="1" pageScale="1" pageWidth="827" pageHeight="1169" math="0" shadow="0">
      <root>
        <mxCell id="WIyWlLk6GJQsqaUBKTNV-0" />
        <mxCell id="WIyWlLk6GJQsqaUBKTNV-1" parent="WIyWlLk6GJQsqaUBKTNV-0" />
        <mxCell id="tpETFldixP6iJdJ61BUS-14" value="" style="rounded=0;whiteSpace=wrap;html=1;fillColor=none;gradientColor=#7ea6e0;strokeColor=#6c8ebf;" vertex="1" parent="WIyWlLk6GJQsqaUBKTNV-1">
          <mxGeometry x="600" y="320" width="160" height="220" as="geometry" />
        </mxCell>
        <mxCell id="tpETFldixP6iJdJ61BUS-18" style="edgeStyle=orthogonalEdgeStyle;rounded=0;orthogonalLoop=1;jettySize=auto;html=1;fillColor=#d5e8d4;gradientColor=#97d077;strokeColor=#82b366;" edge="1" parent="WIyWlLk6GJQsqaUBKTNV-1" source="tpETFldixP6iJdJ61BUS-0" target="tpETFldixP6iJdJ61BUS-2">
          <mxGeometry relative="1" as="geometry" />
        </mxCell>
        <mxCell id="tpETFldixP6iJdJ61BUS-0" value="注册归因" style="rounded=0;whiteSpace=wrap;html=1;fillColor=#d5e8d4;strokeColor=#82b366;gradientColor=#97d077;" vertex="1" parent="WIyWlLk6GJQsqaUBKTNV-1">
          <mxGeometry x="60" y="270" width="170" height="40" as="geometry" />
        </mxCell>
        <mxCell id="tpETFldixP6iJdJ61BUS-19" style="edgeStyle=orthogonalEdgeStyle;rounded=0;orthogonalLoop=1;jettySize=auto;html=1;" edge="1" parent="WIyWlLk6GJQsqaUBKTNV-1" source="tpETFldixP6iJdJ61BUS-2" target="tpETFldixP6iJdJ61BUS-3">
          <mxGeometry relative="1" as="geometry" />
        </mxCell>
        <mxCell id="tpETFldixP6iJdJ61BUS-2" value="H5登录归因" style="rounded=0;whiteSpace=wrap;html=1;fillColor=#d5e8d4;strokeColor=#82b366;gradientColor=#97d077;" vertex="1" parent="WIyWlLk6GJQsqaUBKTNV-1">
          <mxGeometry x="250" y="270" width="170" height="40" as="geometry" />
        </mxCell>
        <mxCell id="tpETFldixP6iJdJ61BUS-20" style="edgeStyle=orthogonalEdgeStyle;rounded=0;orthogonalLoop=1;jettySize=auto;html=1;" edge="1" parent="WIyWlLk6GJQsqaUBKTNV-1" source="tpETFldixP6iJdJ61BUS-3" target="tpETFldixP6iJdJ61BUS-4">
          <mxGeometry relative="1" as="geometry" />
        </mxCell>
        <mxCell id="tpETFldixP6iJdJ61BUS-3" value="点击归因" style="rounded=0;whiteSpace=wrap;html=1;fillColor=#f8cecc;strokeColor=#b85450;gradientColor=#ea6b66;" vertex="1" parent="WIyWlLk6GJQsqaUBKTNV-1">
          <mxGeometry x="440" y="270" width="320" height="40" as="geometry" />
        </mxCell>
        <mxCell id="tpETFldixP6iJdJ61BUS-21" style="edgeStyle=orthogonalEdgeStyle;rounded=0;orthogonalLoop=1;jettySize=auto;html=1;entryX=0;entryY=0.5;entryDx=0;entryDy=0;" edge="1" parent="WIyWlLk6GJQsqaUBKTNV-1" source="tpETFldixP6iJdJ61BUS-4" target="tpETFldixP6iJdJ61BUS-5">
          <mxGeometry relative="1" as="geometry" />
        </mxCell>
        <mxCell id="tpETFldixP6iJdJ61BUS-4" value="曝光归因" style="rounded=0;whiteSpace=wrap;html=1;fillColor=#f8cecc;strokeColor=#b85450;gradientColor=#ea6b66;" vertex="1" parent="WIyWlLk6GJQsqaUBKTNV-1">
          <mxGeometry x="781" y="270" width="239" height="40" as="geometry" />
        </mxCell>
        <mxCell id="tpETFldixP6iJdJ61BUS-22" style="edgeStyle=orthogonalEdgeStyle;rounded=0;orthogonalLoop=1;jettySize=auto;html=1;fillColor=#d5e8d4;gradientColor=#97d077;strokeColor=#82b366;" edge="1" parent="WIyWlLk6GJQsqaUBKTNV-1" source="tpETFldixP6iJdJ61BUS-5" target="tpETFldixP6iJdJ61BUS-6">
          <mxGeometry relative="1" as="geometry" />
        </mxCell>
        <mxCell id="tpETFldixP6iJdJ61BUS-5" value="注册后30天登录归因" style="rounded=0;whiteSpace=wrap;html=1;fillColor=#d5e8d4;strokeColor=#82b366;gradientColor=#97d077;" vertex="1" parent="WIyWlLk6GJQsqaUBKTNV-1">
          <mxGeometry x="1056" y="270" width="170" height="40" as="geometry" />
        </mxCell>
        <mxCell id="tpETFldixP6iJdJ61BUS-6" value="自然量归因" style="rounded=0;whiteSpace=wrap;html=1;fillColor=#d5e8d4;strokeColor=#82b366;gradientColor=#97d077;" vertex="1" parent="WIyWlLk6GJQsqaUBKTNV-1">
          <mxGeometry x="1270" y="270" width="170" height="40" as="geometry" />
        </mxCell>
        <mxCell id="tpETFldixP6iJdJ61BUS-7" value="通过注册的渠道号" style="rounded=0;whiteSpace=wrap;html=1;fillColor=#dae8fc;strokeColor=#6c8ebf;gradientColor=#7ea6e0;" vertex="1" parent="WIyWlLk6GJQsqaUBKTNV-1">
          <mxGeometry x="85" y="380" width="120" height="90" as="geometry" />
        </mxCell>
        <mxCell id="tpETFldixP6iJdJ61BUS-8" value="通过H5登录的记录" style="rounded=0;whiteSpace=wrap;html=1;fillColor=#dae8fc;strokeColor=#6c8ebf;gradientColor=#7ea6e0;" vertex="1" parent="WIyWlLk6GJQsqaUBKTNV-1">
          <mxGeometry x="275" y="380" width="120" height="90" as="geometry" />
        </mxCell>
        <mxCell id="tpETFldixP6iJdJ61BUS-9" value="" style="endArrow=none;dashed=1;html=1;rounded=0;" edge="1" parent="WIyWlLk6GJQsqaUBKTNV-1">
          <mxGeometry width="50" height="50" relative="1" as="geometry">
            <mxPoint x="240" y="550" as="sourcePoint" />
            <mxPoint x="240" y="260" as="targetPoint" />
          </mxGeometry>
        </mxCell>
        <mxCell id="tpETFldixP6iJdJ61BUS-10" value="精准匹配" style="rounded=0;whiteSpace=wrap;html=1;fillColor=#dae8fc;gradientColor=#7ea6e0;strokeColor=#6c8ebf;" vertex="1" parent="WIyWlLk6GJQsqaUBKTNV-1">
          <mxGeometry x="440" y="320" width="120" height="220" as="geometry" />
        </mxCell>
        <mxCell id="tpETFldixP6iJdJ61BUS-11" value="通过UA+IP模糊匹配" style="rounded=0;whiteSpace=wrap;html=1;fillColor=#dae8fc;gradientColor=#7ea6e0;strokeColor=#6c8ebf;" vertex="1" parent="WIyWlLk6GJQsqaUBKTNV-1">
          <mxGeometry x="630" y="360" width="100" height="70" as="geometry" />
        </mxCell>
        <mxCell id="tpETFldixP6iJdJ61BUS-12" value="h5埋点模糊匹配" style="rounded=0;whiteSpace=wrap;html=1;fillColor=#dae8fc;gradientColor=#7ea6e0;strokeColor=#6c8ebf;" vertex="1" parent="WIyWlLk6GJQsqaUBKTNV-1">
          <mxGeometry x="630" y="460" width="100" height="70" as="geometry" />
        </mxCell>
        <mxCell id="tpETFldixP6iJdJ61BUS-15" value="模糊匹配" style="text;html=1;align=center;verticalAlign=middle;whiteSpace=wrap;rounded=0;fillColor=#dae8fc;strokeColor=#6c8ebf;gradientColor=#7ea6e0;" vertex="1" parent="WIyWlLk6GJQsqaUBKTNV-1">
          <mxGeometry x="600" y="320" width="60" height="30" as="geometry" />
        </mxCell>
        <mxCell id="tpETFldixP6iJdJ61BUS-16" value="" style="endArrow=none;dashed=1;html=1;rounded=0;" edge="1" parent="WIyWlLk6GJQsqaUBKTNV-1">
          <mxGeometry width="50" height="50" relative="1" as="geometry">
            <mxPoint x="429" y="550" as="sourcePoint" />
            <mxPoint x="429" y="260" as="targetPoint" />
          </mxGeometry>
        </mxCell>
        <mxCell id="tpETFldixP6iJdJ61BUS-17" value="" style="endArrow=none;dashed=1;html=1;rounded=0;" edge="1" parent="WIyWlLk6GJQsqaUBKTNV-1">
          <mxGeometry width="50" height="50" relative="1" as="geometry">
            <mxPoint x="770" y="550" as="sourcePoint" />
            <mxPoint x="770" y="260" as="targetPoint" />
          </mxGeometry>
        </mxCell>
        <mxCell id="tpETFldixP6iJdJ61BUS-23" value="" style="endArrow=none;dashed=1;html=1;rounded=0;" edge="1" parent="WIyWlLk6GJQsqaUBKTNV-1">
          <mxGeometry width="50" height="50" relative="1" as="geometry">
            <mxPoint x="1040" y="550" as="sourcePoint" />
            <mxPoint x="1040" y="260" as="targetPoint" />
          </mxGeometry>
        </mxCell>
        <mxCell id="tpETFldixP6iJdJ61BUS-24" value="" style="endArrow=none;dashed=1;html=1;rounded=0;" edge="1" parent="WIyWlLk6GJQsqaUBKTNV-1">
          <mxGeometry width="50" height="50" relative="1" as="geometry">
            <mxPoint x="1241" y="552" as="sourcePoint" />
            <mxPoint x="1241" y="262" as="targetPoint" />
          </mxGeometry>
        </mxCell>
        <mxCell id="tpETFldixP6iJdJ61BUS-25" value="精准匹配" style="rounded=0;whiteSpace=wrap;html=1;fillColor=#dae8fc;strokeColor=#6c8ebf;gradientColor=#7ea6e0;" vertex="1" parent="WIyWlLk6GJQsqaUBKTNV-1">
          <mxGeometry x="781" y="380" width="120" height="90" as="geometry" />
        </mxCell>
        <mxCell id="tpETFldixP6iJdJ61BUS-26" value="模糊匹配" style="rounded=0;whiteSpace=wrap;html=1;fillColor=#dae8fc;strokeColor=#6c8ebf;gradientColor=#7ea6e0;" vertex="1" parent="WIyWlLk6GJQsqaUBKTNV-1">
          <mxGeometry x="910" y="380" width="120" height="90" as="geometry" />
        </mxCell>
        <mxCell id="tpETFldixP6iJdJ61BUS-28" value="注册渠道为信息流，在注册的30天后登录" style="rounded=0;whiteSpace=wrap;html=1;fillColor=#dae8fc;strokeColor=#6c8ebf;gradientColor=#7ea6e0;" vertex="1" parent="WIyWlLk6GJQsqaUBKTNV-1">
          <mxGeometry x="1081" y="380" width="120" height="90" as="geometry" />
        </mxCell>
        <mxCell id="tpETFldixP6iJdJ61BUS-29" value="其它为自然量" style="rounded=0;whiteSpace=wrap;html=1;fillColor=#dae8fc;strokeColor=#6c8ebf;gradientColor=#7ea6e0;" vertex="1" parent="WIyWlLk6GJQsqaUBKTNV-1">
          <mxGeometry x="1295" y="380" width="120" height="90" as="geometry" />
        </mxCell>
      </root>
    </mxGraphModel>
  </diagram>
</mxfile>
